HIERARCHY
ROOT SpineBase
{
  OFFSET 0.000000 0.000000 0.000000
  CHANNELS 6 Xposition Yposition Zposition Zrotation Xrotation Yrotation
  JOINT SpineMid
  {
    OFFSET 0.000000 32.984993 0.000000
    CHANNELS 3 Zrotation Xrotation Yrotation
    JOINT SpineShoulder
    {
      OFFSET 0.156355 24.314897 -0.808812
      CHANNELS 3 Zrotation Xrotation Yrotation
      JOINT Neck
      {
        OFFSET 0.250285 8.046019 -0.575608
        CHANNELS 3 Zrotation Xrotation Yrotation
        JOINT Head
        {
          OFFSET 1.862971 9.599535 5.853962
          CHANNELS 3 Zrotation Xrotation Yrotation
          End Site
          {
            OFFSET 0 0 0
          }
        }
      }
      JOINT ShoulderLeft
      {
        OFFSET -2.061483 -6.219264 -14.726453
        CHANNELS 3 Zrotation Xrotation Yrotation
        JOINT ElbowLeft
        {
          OFFSET -0.389331 -27.436662 -9.183306
          CHANNELS 3 Zrotation Xrotation Yrotation
          JOINT WristLeft
          {
            OFFSET 5.787959 -20.322787 -0.818875
            CHANNELS 3 Zrotation Xrotation Yrotation
            JOINT HandLeft
            {
              OFFSET 0.854885 -7.444843 0.719927
              CHANNELS 3 Zrotation Xrotation Yrotation
              JOINT HandTipLeft
              {
                OFFSET 1.778567 -6.641762 2.121643
                CHANNELS 3 Zrotation Xrotation Yrotation
                End Site
                {
                  OFFSET 0 0 0
                }
              }
              JOINT ThumbLeft
              {
                OFFSET -4.500046 1.953071 3.919140
                CHANNELS 3 Zrotation Xrotation Yrotation
                End Site
                {
                  OFFSET 0 0 0
                }
              }
            }
          }
        }
      }
      JOINT ShoulderRight
      {
        OFFSET 9.954714 0.026471 14.347387
        CHANNELS 3 Zrotation Xrotation Yrotation
        JOINT ElbowRight
        {
          OFFSET 2.933343 -24.892350 11.280554
          CHANNELS 3 Zrotation Xrotation Yrotation
          JOINT WristRight
          {
            OFFSET -3.818152 -27.043031 -8.386686
            CHANNELS 3 Zrotation Xrotation Yrotation
            JOINT HandRight
            {
              OFFSET -4.453832 -23.422191 1.836807
              CHANNELS 3 Zrotation Xrotation Yrotation
              JOINT HandTipRight
              {
                OFFSET -0.094246 -0.267164 -0.911341
                CHANNELS 3 Zrotation Xrotation Yrotation
                End Site
                {
                  OFFSET 0 0 0
                }
              }
              JOINT ThumbRight
              {
                OFFSET -0.110172 0.714235 -2.318634
                CHANNELS 3 Zrotation Xrotation Yrotation
                End Site
                {
                  OFFSET 0 0 0
                }
              }
            }
          }
        }
      }
    }
  }
  JOINT HipLeft
  {
    OFFSET -2.329533 -0.134771 -5.834270
    CHANNELS 3 Zrotation Xrotation Yrotation
    JOINT KneeLeft
    {
      OFFSET -5.764094 -31.304640 -1.514460
      CHANNELS 3 Zrotation Xrotation Yrotation
      JOINT AnkleLeft
      {
        OFFSET -10.042172 -33.072569 1.409321
        CHANNELS 3 Zrotation Xrotation Yrotation
        JOINT FootLeft
        {
          OFFSET 3.858309 -7.555400 -2.184031
          CHANNELS 3 Zrotation Xrotation Yrotation
          End Site
          {
            OFFSET 0 0 0
          }
        }
      }
    }
  }
  JOINT HipRight
  {
    OFFSET 2.743634 1.548625 -2.282782
    CHANNELS 3 Zrotation Xrotation Yrotation
    JOINT KneeRight
    {
      OFFSET 0.822290 -32.506408 17.586493
      CHANNELS 3 Zrotation Xrotation Yrotation
      JOINT AnkleRight
      {
        OFFSET -11.825573 -35.657436 0.625203
        CHANNELS 3 Zrotation Xrotation Yrotation
        JOINT FootRight
        {
          OFFSET 2.616992 -7.102751 -0.109229
          CHANNELS 3 Zrotation Xrotation Yrotation
          End Site
          {
            OFFSET 0 0 0
          }
        }
      }
    }
  }
}
MOTION
Frames: 11
Frame Time: 0.033333
-2.605989 73.241237 346.249131 -6.272071 -3.292350 -66.635451 0.375981 0.593314 66.263825 1.479652 -0.257817 -0.068047 -13.800642 12.441391 10.917580 0.000000 0.000000 0.000000 -5.756453 8.600500 4.250058 7.191666 -5.698159 -2.907886 -1.886703 -27.887308 -4.641462 20.291498 40.160600 0.718606 0.000000 0.000000 0.000000 0.000000 0.000000 0.000000 4.084517 3.679818 0.046716 -0.000000 0.000000 0.000000 -0.000000 0.000000 0.000000 -7.959433 -41.729189 -102.795098 0.000000 0.000000 0.000000 0.000000 0.000000 0.000000 -15.976304 -0.571326 65.957441 8.578755 -10.628701 1.470923 -4.371428 6.381252 7.068583 0.000000 0.000000 0.000000 -21.171211 20.142098 75.097044 9.080700 -33.914054 6.480926 3.020636 26.769673 -2.350247 0.000000 0.000000 0.000000
-1.494917 73.148486 347.274419 -8.750489 -2.254938 -68.520824 0.417001 0.615617 68.068080 1.609050 -0.376006 -0.174678 -18.065169 12.392499 15.196907 0.000000 0.000000 0.000000 -5.693696 7.529409 5.205964 7.001369 -4.333469 -3.257274 -2.610788 -32.538878 -6.891520 21.216085 46.914492 0.398995 0.000000 0.000000 0.000000 0.000000 0.000000 0.000000 6.397993 2.845557 0.211320 -0.000000 0.000000 0.000000 -0.000000 0.000000 0.000000 -8.202151 -41.896714 -102.906793 0.000000 0.000000 0.000000 0.000000 0.000000 0.000000 -14.422805 0.503090 68.122426 8.184797 -10.311138 1.214149 -10.802081 3.495415 8.470255 0.000000 0.000000 0.000000 -21.838616 22.016288 78.444092 9.192375 -35.429127 6.678337 2.709337 24.893456 -2.648662 0.000000 0.000000 0.000000
-0.589101 72.794816 348.106043 -11.161457 -1.285457 -68.874228 0.300979 0.436655 68.384100 1.650608 -0.400097 -0.292912 -20.592523 11.572544 18.387835 0.000000 0.000000 0.000000 -5.655540 6.088509 6.219506 6.751688 -3.467290 -3.909822 -7.459522 -37.604154 -11.426338 19.962995 50.473011 1.032796 0.000000 0.000000 0.000000 0.000000 0.000000 0.000000 8.978638 1.913510 0.435447 -0.000000 0.000000 0.000000 -0.000000 0.000000 0.000000 -8.431090 -42.051007 -103.029844 0.000000 0.000000 0.000000 0.000000 0.000000 0.000000 -12.382148 2.346557 68.849208 7.380578 -9.506342 0.871473 -8.371815 6.584130 10.249139 0.000000 0.000000 0.000000 -21.885391 23.862643 79.925869 9.346797 -36.197641 6.758078 -0.068725 21.391497 -2.275705 0.000000 0.000000 0.000000
0.000621 72.332221 348.568749 -13.320740 -0.381487 -67.991078 0.144988 0.200503 67.504813 1.624550 -0.407986 -0.407366 -21.454274 10.503178 20.331832 0.000000 0.000000 0.000000 -5.418245 4.624134 7.049129 6.273828 -2.598682 -4.462985 -10.234608 -38.878309 -14.532799 20.654507 50.557778 1.180314 0.000000 0.000000 0.000000 0.000000 0.000000 0.000000 11.446565 1.019650 0.690285 -0.000000 0.000000 0.000000 -0.000000 0.000000 0.000000 -8.628435 -42.181688 -103.145565 0.000000 0.000000 0.000000 0.000000 0.000000 0.000000 -10.612183 4.432606 68.294050 6.740174 -8.955899 0.643941 -6.676531 9.036313 11.661198 0.000000 0.000000 0.000000 -20.525040 25.430843 79.462389 8.464834 -35.733419 6.042154 -5.611385 14.762604 -1.985201 0.000000 0.000000 0.000000
0.633625 72.677915 348.936366 -15.304502 0.402992 -68.398873 0.029296 -0.036347 67.932599 1.578336 -0.422594 -0.515448 -21.697511 9.884352 21.776610 0.000000 0.000000 0.000000 -5.197572 3.480261 7.814306 5.964773 -2.933530 -5.359616 -14.003396 -38.335234 -17.222414 13.276162 47.747840 4.821109 0.000000 0.000000 0.000000 0.000000 0.000000 0.000000 13.749544 0.306745 0.945565 -0.000000 0.000000 0.000000 -0.000000 0.000000 0.000000 -8.803345 -42.295807 -103.254799 0.000000 0.000000 0.000000 0.000000 0.000000 0.000000 -8.002109 5.884210 68.938863 6.138327 -7.297420 0.255846 -9.403968 8.533864 12.983837 0.000000 0.000000 0.000000 -20.268285 26.607083 80.568730 7.601361 -35.730690 5.418319 -3.024365 16.632238 -1.364427 0.000000 0.000000 0.000000
1.262406 72.473651 349.565468 -16.446670 0.448675 -68.432029 -0.186302 -0.200700 67.947266 1.410818 -0.294137 -0.575780 -21.171634 9.809333 22.391528 0.000000 0.000000 0.000000 -4.771775 2.826237 8.234894 5.650383 -3.570466 -6.113763 -15.843931 -34.618324 -17.107898 8.713444 39.743544 5.074028 0.000000 0.000000 0.000000 0.000000 0.000000 0.000000 15.295320 0.049189 1.097213 -0.000000 0.000000 0.000000 -0.000000 0.000000 0.000000 -8.924101 -42.372404 -103.341380 0.000000 0.000000 0.000000 0.000000 0.000000 0.000000 -7.609544 6.586521 69.120748 6.660850 -6.751357 0.179113 -7.645889 10.707861 13.834946 0.000000 0.000000 0.000000 -20.909001 27.240767 80.990979 8.314676 -36.024651 5.837613 -2.313884 17.519135 -0.999188 0.000000 0.000000 0.000000
1.730397 72.081172 350.166677 -17.712758 0.575065 -68.025171 -0.147941 -0.110565 67.525572 1.384453 -0.226807 -0.620003 -19.267462 9.768125 21.958706 0.000000 0.000000 0.000000 -4.571403 2.661975 8.652614 5.413370 -4.221203 -6.705089 -16.645687 -31.762137 -16.679774 7.860771 34.445179 3.857862 0.000000 0.000000 0.000000 0.000000 0.000000 0.000000 16.493449 -0.092250 1.209729 -0.000000 0.000000 0.000000 -0.000000 0.000000 0.000000 -9.038673 -42.445129 -103.421504 0.000000 0.000000 0.000000 0.000000 0.000000 0.000000 -7.377221 7.433967 68.887236 7.331973 -6.483134 0.162262 -2.931902 14.172449 14.017441 0.000000 0.000000 0.000000 -20.759662 28.122428 80.874796 8.711659 -35.883540 5.990367 -5.990307 14.430796 -0.826790 0.000000 0.000000 0.000000
2.139122 71.702410 350.613789 -18.413053 0.501641 -68.006756 -0.176683 -0.090733 67.481779 1.261754 -0.123025 -0.644801 -18.684964 9.890210 22.137503 0.000000 0.000000 0.000000 -3.970664 2.902499 8.822099 5.109070 -5.199634 -7.108641 -15.597604 -29.899569 -15.457175 10.348846 32.651941 2.630366 0.000000 0.000000 0.000000 0.000000 0.000000 0.000000 17.309229 -0.122698 1.276184 -0.000000 0.000000 0.000000 -0.000000 0.000000 0.000000 -9.107006 -42.486225 -103.482189 0.000000 0.000000 0.000000 0.000000 0.000000 0.000000 -7.321241 7.572219 68.961702 8.093703 -5.958678 0.099978 3.818245 18.038398 13.182019 0.000000 0.000000 0.000000 -21.295173 28.328503 80.944019 9.518077 -35.926675 6.457484 -6.320349 15.856979 -0.073644 0.000000 0.000000 0.000000
2.751685 71.420938 351.068407 -18.528690 0.304949 -67.952490 -0.173720 -0.041927 67.397899 1.193878 -0.052404 -0.641513 -18.605710 10.012094 22.225210 0.000000 0.000000 0.000000 -3.371735 3.501092 8.750473 5.256120 -6.355331 -7.256213 -15.617116 -29.104776 -14.613171 19.833056 38.299576 1.838284 0.000000 0.000000 0.000000 0.000000 0.000000 0.000000 17.443562 -0.007360 1.264971 -0.000000 0.000000 0.000000 -0.000000 0.000000 0.000000 -9.147554 -42.510444 -103.518874 0.000000 0.000000 0.000000 0.000000 0.000000 0.000000 -8.060578 7.050485 68.955672 9.103478 -5.859226 0.125028 10.701298 21.305925 11.721668 0.000000 0.000000 0.000000 -21.748374 27.964300 80.559118 10.243558 -35.719482 6.871241 -4.063860 20.567510 1.111095 0.000000 0.000000 0.000000
3.532188 71.254273 351.510261 -18.687478 0.278094 -67.617641 -0.063347 0.092217 67.052056 1.329060 -0.077389 -0.632965 -19.239119 10.076909 22.562960 0.000000 0.000000 0.000000 -3.334411 3.949368 8.738623 5.691416 -7.157249 -7.353282 -13.248169 -27.588462 -12.738896 26.990271 40.336799 0.312790 0.000000 0.000000 0.000000 0.000000 0.000000 0.000000 17.300068 0.090596 1.236401 -0.000000 0.000000 0.000000 -0.000000 0.000000 0.000000 -9.199434 -42.543258 -103.554551 0.000000 0.000000 0.000000 0.000000 0.000000 0.000000 -8.745620 6.524435 68.671343 10.105510 -6.029458 0.206562 16.403077 23.931821 10.274167 0.000000 0.000000 0.000000 -21.591664 27.464873 79.576137 11.129999 -35.144437 7.343475 -0.527052 27.223412 2.344980 0.000000 0.000000 0.000000
4.283084 71.189452 351.864765 -18.503552 0.214167 -67.428269 0.074102 0.263280 66.856121 1.438498 -0.108824 -0.611269 -20.824221 10.387898 23.271043 0.000000 0.000000 0.000000 -3.193884 4.262401 8.508026 6.220833 -7.729432 -7.252201 -10.070469 -27.057690 -10.855465 27.948532 41.120772 -0.095705 0.000000 0.000000 0.000000 0.000000 0.000000 0.000000 16.793624 0.225698 1.175268 -0.000000 0.000000 0.000000 -0.000000 0.000000 0.000000 -9.179580 -42.534528 -103.518060 0.000000 0.000000 0.000000 0.000000 0.000000 0.000000 -9.497936 5.764239 68.473080 10.946118 -6.248540 0.294675 20.613808 25.592313 8.981195 0.000000 0.000000 0.000000 -21.767226 26.694487 78.724968 12.005934 -34.742824 7.843642 8.070929 37.435166 2.076464 0.000000 0.000000 0.000000
